HIERARCHY
ROOT Hips
{
	OFFSET 0.000000 0.000000 0.000000
	CHANNELS 6 Xposition Yposition Zposition Zrotation Yrotation Xrotation 
	JOINT LeftUpLeg_virtual
	{
		OFFSET 0.000000 0.000000 0.000000
		CHANNELS 3 Zrotation Yrotation Xrotation
		JOINT LeftUpLeg
		{
			OFFSET 10.205400 -3.823500 0.155100
			CHANNELS 3 Zrotation Yrotation Xrotation
			JOINT LeftLeg
			{
				OFFSET 0.708757 -12.982077 0.567790
				CHANNELS 3 Zrotation Yrotation Xrotation
				JOINT LeftFoot
				{
					OFFSET -0.708756 -10.717838 -2.184338
					CHANNELS 3 Zrotation Yrotation Xrotation
					JOINT LeftToeBase
					{
						OFFSET 0.108149 -7.191104 7.560241
						CHANNELS 3 Zrotation Yrotation Xrotation
						End Site
						{
							OFFSET 0.000000 0.000000 0.000000
						}
					}
				}
			}
		}
	}
	JOINT RightUpLeg_virtual
	{
		OFFSET 0.000000 0.000000 0.000000
		CHANNELS 3 Zrotation Yrotation Xrotation
		JOINT RightUpLeg
		{
			OFFSET -10.205400 -3.823500 0.005500
			CHANNELS 3 Zrotation Yrotation Xrotation
			JOINT RightLeg
			{
				OFFSET -0.708756 -12.982134 0.610632
				CHANNELS 3 Zrotation Yrotation Xrotation
				JOINT RightFoot
				{
					OFFSET 0.708754 -10.717769 -1.945823
					CHANNELS 3 Zrotation Yrotation Xrotation
					JOINT RightToeBase
					{
						OFFSET -0.108140 -7.191069 7.372968
						CHANNELS 3 Zrotation Yrotation Xrotation
						End Site
						{
							OFFSET 0.000000 0.000000 0.000000
						}
					}
				}
			}
		}
	}
	JOINT Spine_virtual
	{
		OFFSET 0.000000 0.000000 0.000000
		CHANNELS 3 Zrotation Yrotation Xrotation
		JOINT Spine
		{
			OFFSET 0.000000 6.876099 0.125700
			CHANNELS 3 Zrotation Yrotation Xrotation
			JOINT Spine1
			{
				OFFSET 0.000000 8.022060 0.146608
				CHANNELS 3 Zrotation Yrotation Xrotation
				JOINT Spine2
				{
					OFFSET 0.000000 9.168068 0.167552
					CHANNELS 3 Zrotation Yrotation Xrotation
					JOINT Neck_virtual
					{
						OFFSET 0.000000 0.000000 0.000000
						CHANNELS 3 Zrotation Yrotation Xrotation
						JOINT Neck
						{
							OFFSET 0.000000 10.314075 0.188496
							CHANNELS 3 Zrotation Yrotation Xrotation
							JOINT Head
							{
								OFFSET 0.000000 7.643700 -2.377400
								CHANNELS 3 Zrotation Yrotation Xrotation
								End Site
								{
									OFFSET 0.000000 0.000000 0.000000
								}
							}
						}
					}
					JOINT LeftShoulder_virtual
					{
						OFFSET 0.000000 0.000000 0.000000
						CHANNELS 3 Zrotation Yrotation Xrotation
						JOINT LeftShoulder
						{
							OFFSET 4.392200 8.824978 0.174984
							CHANNELS 3 Zrotation Yrotation Xrotation
							JOINT LeftArm
							{
								OFFSET 8.771219 -2.981674 -0.026999
								CHANNELS 3 Zrotation Yrotation Xrotation
								JOINT LeftForeArm
								{
									OFFSET 8.512804 0.000000 -0.000000
									CHANNELS 3 Zrotation Yrotation Xrotation
									JOINT LeftHand
									{
										OFFSET 18.484802 0.000000 -0.000000
										CHANNELS 3 Zrotation Yrotation Xrotation
										End Site
										{
											OFFSET 0.000000 0.000000 0.000000
										}
									}
								}
							}
						}
					}
					JOINT RightShoulder_virtual
					{
						OFFSET 0.000000 0.000000 0.000000
						CHANNELS 3 Zrotation Yrotation Xrotation
						JOINT RightShoulder
						{
							OFFSET -4.392200 8.824993 0.141379
							CHANNELS 3 Zrotation Yrotation Xrotation
							JOINT RightArm
							{
								OFFSET -8.771282 -2.981682 -0.094208
								CHANNELS 3 Zrotation Yrotation Xrotation
								JOINT RightForeArm
								{
									OFFSET -8.494598 0.000000 0.000000
									CHANNELS 3 Zrotation Yrotation Xrotation
									JOINT RightHand
									{
										OFFSET -18.483803 0.000000 0.000001
										CHANNELS 3 Zrotation Yrotation Xrotation
										End Site
										{
											OFFSET 0.000000 0.000000 0.000000
										}
									}
								}
							}
						}
					}
				}
			}
		}
	}
}
MOTION
Frames: 5
Frame Time: 0.033333
-3.252543 35.745857 18.940872 -179.839031 13.317861 -179.821696 -3.552706 -1.426820 9.464089 -15.194924 12.043889 -13.098096 12.796009 7.161733 21.123653 -4.566968 -5.664243 0.351115 0.000000 0.000000 0.000000 1.724328 1.165875 8.182602 -5.854099 -16.667719 -16.119931 -9.776729 -1.283339 8.782540 10.769793 3.329318 26.756641 0.000000 0.000000 0.000000 0.443699 2.655325 -8.243946 -1.079496 1.606072 -8.474233 1.665104 -4.042366 3.702529 0.009924 -0.029931 0.004188 1.250093 -2.016425 6.665527 8.097147 -12.852527 27.358966 0.000000 0.000000 0.000000 2.716721 -1.700903 2.697828 -13.753482 -11.464542 -0.140130 -44.189364 19.764066 50.478206 -161.012462 -87.525746 -179.062999 0.000000 0.000000 0.000000 -1.270556 -0.233788 1.728089 5.488177 2.853707 -10.957288 30.044735 -26.983531 -55.379140 -176.346428 56.795612 178.791157 0.000000 0.000000 0.000000 
-3.321403 35.751991 19.013567 -179.841531 13.594036 -179.932195 -3.473371 -1.239580 9.496172 -15.316764 12.039975 -13.202355 12.741646 7.394365 21.133847 -4.417532 -5.709627 0.560081 0.000000 0.000000 0.000000 1.865918 1.228647 8.118342 -6.190934 -16.474186 -16.369826 -9.719969 -1.172947 9.147390 10.749452 3.325176 26.809254 0.000000 0.000000 0.000000 0.522998 2.672071 -8.122477 -1.116822 1.584986 -8.388909 1.653426 -4.021649 3.758487 0.027149 -0.017365 0.008068 1.206022 -2.006348 6.667552 8.149260 -12.811706 27.138734 0.000000 0.000000 0.000000 2.703574 -1.635647 2.732965 -13.728013 -11.371094 -0.127171 -44.110031 19.769913 50.441739 -160.204764 -87.558155 -179.721415 0.000000 0.000000 0.000000 -1.269812 -0.179004 1.781001 5.640032 3.131102 -10.720492 29.758379 -27.120506 -53.927410 -176.551333 57.251817 178.484673 0.000000 0.000000 0.000000 
-3.411597 35.757366 19.158230 -179.884192 13.652360 -179.934845 -3.403837 -1.348477 9.441570 -15.583116 12.093915 -13.451025 12.742134 7.640178 21.011211 -4.312827 -5.699029 0.918773 0.000000 0.000000 0.000000 1.955020 0.999405 7.956002 -6.506747 -16.294016 -16.773326 -9.646966 -1.247746 9.231565 10.881591 3.256035 27.262080 0.000000 0.000000 0.000000 0.560963 2.626764 -8.054232 -1.183503 1.526482 -8.336467 1.661498 -4.039227 3.775477 -0.026127 -0.036324 0.019211 1.309056 -2.018703 6.701334 8.227649 -12.634311 26.889312 0.000000 0.000000 0.000000 2.802939 -1.656547 2.887205 -13.758852 -11.406440 -0.157742 -44.019934 19.692291 50.392388 -157.662349 -87.635698 177.863713 0.000000 0.000000 0.000000 -1.192063 -0.191136 1.820929 5.869246 3.335374 -10.298903 29.671226 -27.200539 -52.778596 -176.498235 57.601185 178.427750 0.000000 0.000000 0.000000 
-3.534265 35.767792 19.387671 -179.844809 13.823528 179.958081 -3.272835 -1.326060 9.310593 -15.868493 12.157172 -13.649138 12.702933 7.917078 20.807382 -4.269740 -5.623099 1.452534 0.000000 0.000000 0.000000 2.098189 0.728942 7.771422 -6.815703 -16.226067 -17.093172 -9.505357 -1.702952 8.961895 11.049132 3.121813 28.220457 0.000000 0.000000 0.000000 0.655816 2.590908 -7.858770 -1.173594 1.602276 -8.185323 1.646396 -4.102061 3.762387 -0.035055 -0.097642 -0.000049 1.303685 -1.957324 6.720713 8.313284 -12.482896 26.655322 0.000000 0.000000 0.000000 2.741249 -1.600819 2.907931 -13.806941 -11.324585 -0.168046 -43.954053 19.641372 50.232206 -158.284306 -87.596780 178.588478 0.000000 0.000000 0.000000 -1.222005 -0.215873 1.912076 6.162494 3.546607 -10.224348 29.748066 -27.236423 -52.126522 -176.747537 57.846108 178.100352 0.000000 0.000000 0.000000 
-3.684353 35.779636 19.695345 -179.853593 13.925077 179.936566 -3.164753 -1.385286 9.101908 -16.244386 12.239729 -13.972655 12.713384 8.210508 20.482428 -4.241625 -5.459409 2.086317 0.000000 0.000000 0.000000 2.242783 0.352308 7.443116 -7.186252 -16.171098 -17.532720 -9.223949 -2.272402 8.494099 11.056908 3.160280 29.506216 0.000000 0.000000 0.000000 0.761835 2.362903 -7.668790 -1.090253 1.474979 -8.044223 1.637757 -3.979196 3.797304 -0.011117 -0.015443 -0.018563 1.266952 -1.979267 6.716002 8.380360 -12.332451 26.411629 0.000000 0.000000 0.000000 2.695213 -1.632806 2.950307 -13.806363 -11.243302 -0.152795 -43.812392 19.618535 50.149844 -156.191400 -87.536770 176.582438 0.000000 0.000000 0.000000 -1.288880 -0.181863 1.853335 6.516827 3.652859 -9.666668 30.210121 -27.172311 -52.410159 -176.429933 57.992192 178.388640 0.000000 0.000000 0.000000 
